<?xml version="1.0" standalone="no"?>
<!DOCTYPE svg PUBLIC "-//W3C//DTD SVG 20010904//EN"
 "http://www.w3.org/TR/2001/REC-SVG-20010904/DTD/svg10.dtd">
<svg version="1.0" xmlns="http://www.w3.org/2000/svg"
 width="2160.000000pt" height="2160.000000pt" viewBox="0 0 2160.000000 2160.000000"
 preserveAspectRatio="xMidYMid meet">
<metadata>
Created by potrace 1.14, written by Peter Selinger 2001-2017
</metadata>
<g transform="translate(0.000000,2160.000000) scale(0.100000,-0.100000)"
fill="#000000" stroke="none">
<path d="M10 10800 l0 -7200 5000 0 5001 0 -125 242 c-69 134 -1738 3373
-3710 7198 l-3584 6955 -1291 3 -1291 2 0 -7200z"/>
<path d="M17427 17993 c-16 -16 -3 -39 63 -111 244 -270 490 -632 664 -981
246 -490 398 -1012 458 -1576 20 -185 17 -753 -5 -935 -52 -425 -146 -803
-294 -1180 -65 -167 -228 -493 -325 -653 -456 -751 -1094 -1338 -1873 -1722
-487 -240 -947 -375 -1503 -442 -193 -23 -772 -24 -962 -1 -69 8 -126 14 -128
13 -1 -1 786 -1533 1750 -3403 l1753 -3402 2288 0 2287 0 0 7200 0 7200 -2083
0 c-1146 0 -2087 -3 -2090 -7z"/>
</g>
</svg>
